<svg xmlns="http://www.w3.org/2000/svg" style="display:none">
  <defs>
    
  </defs>

  
  <symbol id="i-oil" viewBox="0 0 24 24">
    <path d="M3 16v-4h9l3-2 4 2v4a2 2 0 0 1-2 2H5a2 2 0 0 1-2-2Z"></path>
    <path d="M12 12V9h3"></path>
    <path d="M19 12c0-2 2-3 2-5"></path>
    <path d="M21 5c.8 1 .8 2 0 2.6-.6.5-1.4 0-1-1 .3-.7 1-1.6 1-1.6Z"></path>
    <path d="M6 16v2"></path>
  </symbol>

  
  <symbol id="i-tire" viewBox="0 0 24 24">
    <circle cx="12" cy="12" r="9"></circle>
    <circle cx="12" cy="12" r="3.4"></circle>
    <path d="M12 3v3.6M12 17.4V21M3 12h3.6M17.4 12H21M5.6 5.6l2.5 2.5M15.9 15.9l2.5 2.5M18.4 5.6l-2.5 2.5M8.1 15.9l-2.5 2.5"></path>
  </symbol>

  
  <symbol id="i-brake" viewBox="0 0 24 24">
    <circle cx="11" cy="12" r="8"></circle>
    <circle cx="11" cy="12" r="3"></circle>
    <path d="M16.5 6.5a8 8 0 0 1 0 11"></path>
    <rect x="15.5" y="8" width="4" height="8" rx="1.4"></rect>
  </symbol>

  
  <symbol id="i-balljoint" viewBox="0 0 24 24">
    <circle cx="8" cy="8" r="4.5"></circle>
    <path d="M10.5 11.5 14 15"></path>
    <rect x="13" y="14" width="8" height="4.5" rx="2.25" transform="rotate(45 17 16.25)"></rect>
  </symbol>

  
  <symbol id="i-strut" viewBox="0 0 24 24">
    <path d="M12 2v3"></path>
    <circle cx="12" cy="6" r="1.4" class="fill"></circle>
    <rect x="9.5" y="7.5" width="5" height="4" rx="1"></rect>
    <path d="M10 12c0 1-2 1-2 2s2 1 2 2-2 1-2 2 2 1 2 2"></path>
    <path d="M14 12c0 1 2 1 2 2s-2 1-2 2 2 1 2 2-2 1-2 2"></path>
    <path d="M9.5 22h5"></path>
  </symbol>

  
  <symbol id="i-spark" viewBox="0 0 24 24">
    <path d="M10 2h4v3l1 1v3h-6V6l1-1Z"></path>
    <path d="M9 9h6l-1 5h-4Z"></path>
    <path d="M11 14v3l-2 5"></path>
    <path d="M13 14v3"></path>
  </symbol>

  
  <symbol id="i-battery" viewBox="0 0 24 24">
    <rect x="3" y="7" width="18" height="12" rx="1.6"></rect>
    <path d="M7 7V5h3v2M14 7V5h3v2"></path>
    <path d="M7.5 13h3M9 11.5v3"></path>
    <path d="M14 13h3"></path>
  </symbol>

  
  <symbol id="i-alternator" viewBox="0 0 24 24">
    <circle cx="11" cy="12" r="6.5"></circle>
    <path d="M11 5.5v13M5.2 9l11.6 6M5.2 15l11.6-6"></path>
    <rect x="17.5" y="9.5" width="3.5" height="5" rx="1"></rect>
    <path d="M21 11v2"></path>
  </symbol>

  
  <symbol id="i-radiator" viewBox="0 0 24 24">
    <rect x="3" y="5" width="18" height="13" rx="1.5"></rect>
    <path d="M7 5v13M11 5v13M15 5v13"></path>
    <path d="M5 21c1 0 1-1.5 2-1.5S8 21 9 21s1-1.5 2-1.5"></path>
  </symbol>

  
  <symbol id="i-engine" viewBox="0 0 24 24">
    <path d="M5 10h2V8h4l2 2h4l2 2v4h-2v2h-6v-2H7v-2H5Z"></path>
    <path d="M9 8V6h4"></path>
    <path d="M19 12h2"></path>
    <path d="M3 12v2"></path>
  </symbol>

  
  <symbol id="i-wrench" viewBox="0 0 24 24">
    <path d="M15.5 4.5a4.5 4.5 0 0 0-5.9 5.7L4 15.8 8.2 20l5.6-5.6a4.5 4.5 0 0 0 5.7-5.9l-2.6 2.6-2.5-.6-.6-2.5Z"></path>
  </symbol>

  
  <symbol id="i-screwdriver" viewBox="0 0 24 24">
    <path d="m3 21 6-6"></path>
    <path d="m8.5 14.5 4-4 1.5 1.5-4 4z"></path>
    <path d="m12.5 10.5 5-5a2 2 0 0 1 3 3l-5 5z"></path>
  </symbol>

  
  <symbol id="i-tools" viewBox="0 0 24 24">
    <path d="M14.5 4.2a3.6 3.6 0 0 0-4.7 4.6L3.5 15l2.6 2.6 6.2-6.2a3.6 3.6 0 0 0 4.6-4.7l-2.1 2.1-2-.5-.5-2Z"></path>
    <path d="m20 19-6.5-6.5"></path>
    <path d="M17 4l3 3-2 2-3-3z"></path>
  </symbol>

  
  <symbol id="i-gear" viewBox="0 0 24 24">
    <circle cx="12" cy="12" r="3.2"></circle>
    <path d="M12 2.5v3M12 18.5v3M2.5 12h3M18.5 12h3M5.2 5.2l2.1 2.1M16.7 16.7l2.1 2.1M18.8 5.2l-2.1 2.1M7.3 16.7l-2.1 2.1"></path>
  </symbol>

  
  <symbol id="i-truck" viewBox="0 0 24 24">
    <path d="M2 7h11v9H2zM13 10h5l3 3v3h-8z"></path>
    <circle cx="7" cy="18" r="1.8"></circle>
    <circle cx="17" cy="18" r="1.8"></circle>
  </symbol>

  
  <symbol id="i-phone" viewBox="0 0 24 24">
    <path d="M5 3h4l2 5-3 2a12 12 0 0 0 5 5l2-3 5 2v4a2 2 0 0 1-2 2A16 16 0 0 1 3 5a2 2 0 0 1 2-2Z"></path>
  </symbol>

  
  <symbol id="i-mail" viewBox="0 0 24 24">
    <rect x="3" y="5" width="18" height="14" rx="2"></rect>
    <path d="m3 7 9 6 9-6"></path>
  </symbol>

  
  <symbol id="i-pin" viewBox="0 0 24 24">
    <path d="M12 21s7-5.6 7-11a7 7 0 1 0-14 0c0 5.4 7 11 7 11Z"></path>
    <circle cx="12" cy="10" r="2.6"></circle>
  </symbol>

  
  <symbol id="i-star" viewBox="0 0 24 24" class="fill">
    <path d="m12 2.5 2.9 6 6.6.9-4.8 4.6 1.2 6.5L12 18.4 6.1 21l1.2-6.5L2.5 9.9l6.6-.9z"></path>
  </symbol>

  
  <symbol id="i-check" viewBox="0 0 24 24">
    <path d="m4 12 5 5 11-11"></path>
  </symbol>

  
  <symbol id="i-clock" viewBox="0 0 24 24">
    <circle cx="12" cy="12" r="9"></circle>
    <path d="M12 7v5l3 2"></path>
  </symbol>

  
  <symbol id="i-shield" viewBox="0 0 24 24">
    <path d="M12 3l7 3v5c0 4.5-3 8-7 10-4-2-7-5.5-7-10V6Z"></path>
    <path d="m9 12 2 2 4-4"></path>
  </symbol>

  
  <symbol id="i-dollar" viewBox="0 0 24 24">
    <path d="M12 3v18"></path>
    <path d="M16 7.5c0-1.7-1.8-2.5-4-2.5s-4 .9-4 2.8c0 3.7 8 2.2 8 6 0 1.9-2 2.7-4 2.7s-4-.8-4-2.6"></path>
  </symbol>

  
  <symbol id="i-house" viewBox="0 0 24 24">
    <path d="M4 11 12 4l8 7"></path>
    <path d="M6 10v9h12v-9"></path>
    <path d="M10 19v-5h4v5"></path>
  </symbol>

  
  <symbol id="i-menu" viewBox="0 0 24 24">
    <path d="M4 7h16M4 12h16M4 17h16"></path>
  </symbol>

  
  <symbol id="i-arrow" viewBox="0 0 24 24">
    <path d="M5 12h14M13 6l6 6-6 6"></path>
  </symbol>
</svg>